<svg xmlns="http://www.w3.org/2000/svg" width="94" height="31" viewBox="0 0 94 31" fill="none">
  <path d="M26.6628 4.59281C29.1052 7.65468 30.3264 11.2741 30.3264 15.4509C30.3264 19.6986 29.1052 23.3357 26.6628 26.3622C24.2204 29.371 20.5125 30.8753 15.5392 30.8753C10.5659 30.8753 6.858 29.371 4.41558 26.3622C1.97316 23.3357 0.751953 19.6986 0.751953 15.4509C0.751953 11.2741 1.97316 7.65468 4.41558 4.59281C6.858 1.53094 10.5659 0 15.5392 0C20.5125 0 24.2204 1.53094 26.6628 4.59281ZM15.5127 6.39807C13.3003 6.39807 11.5924 7.18566 10.3889 8.76085C9.20307 10.3183 8.61017 12.5484 8.61017 15.4509C8.61017 18.3535 9.20307 20.5924 10.3889 22.1676C11.5924 23.7428 13.3003 24.5304 15.5127 24.5304C17.725 24.5304 19.4241 23.7428 20.6099 22.1676C21.7957 20.5924 22.3886 18.3535 22.3886 15.4509C22.3886 12.5484 21.7957 10.3183 20.6099 8.76085C19.4241 7.18566 17.725 6.39807 15.5127 6.39807Z" fill="white"/>
  <path d="M61.5469 29.8665H52.1224L47.1313 21.1853L42.1138 29.8665H32.9282L42.804 15.212L33.3529 0.982277H42.6182L47.4499 9.37145L52.1755 0.982277H61.1752L51.6711 15.0793L61.5469 29.8665Z" fill="white"/>
  <path d="M90.1657 4.59281C92.6081 7.65468 93.8293 11.2741 93.8293 15.4509C93.8293 19.6986 92.6081 23.3357 90.1657 26.3622C87.7233 29.371 84.0154 30.8753 79.0421 30.8753C74.0687 30.8753 70.3609 29.371 67.9184 26.3622C65.476 23.3357 64.2548 19.6986 64.2548 15.4509C64.2548 11.2741 65.476 7.65468 67.9184 4.59281C70.3609 1.53094 74.0687 0 79.0421 0C84.0154 0 87.7233 1.53094 90.1657 4.59281ZM79.0155 6.39807C76.8032 6.39807 75.0953 7.18566 73.8918 8.76085C72.7059 10.3183 72.113 12.5484 72.113 15.4509C72.113 18.3535 72.7059 20.5924 73.8918 22.1676C75.0953 23.7428 76.8032 24.5304 79.0155 24.5304C81.2279 24.5304 82.9269 23.7428 84.1127 22.1676C85.2986 20.5924 85.8915 18.3535 85.8915 15.4509C85.8915 12.5484 85.2986 10.3183 84.1127 8.76085C82.9269 7.18566 81.2279 6.39807 79.0155 6.39807Z" fill="white"/>
</svg>